<svg data-name="86977684-12db-4850-8f30-233a7c267d11" xmlns="http://www.w3.org/2000/svg" viewBox="0 0 36 36" width="36" height="36"><path d="M18 36c9.975 0 18 -8.025 18 -18S27.975 0 18 0 0 8.025 0 18s8.025 18 18 18" fill="#2775ca"/><path d="M22.95 20.85c0 -2.625 -1.575 -3.525 -4.725 -3.9 -2.25 -0.3 -2.7 -0.9 -2.7 -1.95s0.75 -1.725 2.25 -1.725c1.35 0 2.1 0.45 2.475 1.575 0.075 0.225 0.3 0.375 0.525 0.375h1.2c0.3 0 0.525 -0.225 0.525 -0.525v-0.075c-0.3 -1.65 -1.65 -2.925 -3.375 -3.075v-1.8c0 -0.3 -0.225 -0.525 -0.6 -0.6h-1.125c-0.3 0 -0.525 0.225 -0.6 0.6v1.725c-2.25 0.3 -3.675 1.8 -3.675 3.675 0 2.475 1.5 3.45 4.65 3.825 2.1 0.375 2.775 0.825 2.775 2.025s-1.05 2.025 -2.475 2.025c-1.95 0 -2.625 -0.825 -2.85 -1.95 -0.075 -0.3 -0.3 -0.45 -0.525 -0.45h-1.275c-0.3 0 -0.525 0.225 -0.525 0.525v0.075c0.3 1.875 1.5 3.225 3.975 3.6v1.8c0 0.3 0.225 0.525 0.6 0.6h1.125c0.3 0 0.525 -0.225 0.6 -0.6v-1.8c2.25 -0.375 3.75 -1.95 3.75 -3.975" fill="#fff"/><path d="M14.175 28.725c-5.85 -2.1 -8.85 -8.625 -6.675 -14.4 1.125 -3.15 3.6 -5.55 6.675 -6.675 0.3 -0.15 0.45 -0.375 0.45 -0.75V5.85c0 -0.3 -0.15 -0.525 -0.45 -0.6 -0.075 0 -0.225 0 -0.3 0.075 -7.125 2.25 -11.025 9.825 -8.775 16.95 1.35 4.2 4.575 7.425 8.775 8.775 0.3 0.15 0.6 0 0.675 -0.3 0.075 -0.075 0.075 -0.15 0.075 -0.3v-1.05c0 -0.225 -0.225 -0.525 -0.45 -0.675m7.95 -23.4c-0.3 -0.15 -0.6 0 -0.675 0.3 -0.075 0.075 -0.075 0.15 -0.075 0.3v1.05c0 0.3 0.225 0.6 0.45 0.75 5.85 2.1 8.85 8.625 6.675 14.4 -1.125 3.15 -3.6 5.55 -6.675 6.675 -0.3 0.15 -0.45 0.375 -0.45 0.75V30.6c0 0.3 0.15 0.525 0.45 0.6 0.075 0 0.225 0 0.3 -0.075 7.125 -2.25 11.025 -9.825 8.775 -16.95 -1.35 -4.275 -4.65 -7.5 -8.775 -8.85" fill="#fff"/></svg>