<svg xmlns="http://www.w3.org/2000/svg" xmlns:xlink="http://www.w3.org/1999/xlink" width="400" height="398" viewBox="0 0 400 398">
  <defs>
    <style>
      .cls-1 {
        stroke: #790edc;
        stroke-width: 1px;
        fill: url(#linear-gradient);
      }

      .cls-1, .cls-2 {
        fill-rule: evenodd;
      }

      .cls-2 {
        fill: #f6f4f8;
      }
    </style>
    <linearGradient id="linear-gradient" x1="16.781" y1="71.037" x2="383.219" y2="327.619" gradientUnits="userSpaceOnUse">
      <stop offset="0" stop-color="#794993"/>
      <stop offset="0.996" stop-color="#212029"/>
      <stop offset="1" stop-color="#212029"/>
    </linearGradient>
  </defs>
  <path class="cls-1" d="M200,7.544c101.18,0,183.2,85.868,183.2,191.791S301.18,391.125,200,391.125,16.8,305.258,16.8,199.335,98.82,7.544,200,7.544Z"/>
  <path id="M" class="cls-2" d="M95.6,277.877c0,9.45,6.21,15.93,15.93,15.93,9.99,0,16.47-6.48,16.47-15.93V156.107c0-14.31,6.48-21.6,12.96-21.6,6.75,0,13.23,7.29,13.23,21.6v86.4c0,36.99,22.95,55.62,45.63,55.62s45.63-18.63,45.63-55.62v-86.4c0-14.31,6.48-21.6,13.23-21.6,6.48,0,12.96,7.29,12.96,21.6v121.77c0,9.45,6.48,15.93,16.2,15.93,9.99,0,16.2-6.48,16.2-15.93V156.107c0-36.99-22.68-55.62-45.36-55.62-22.95,0-45.63,18.63-45.63,55.62v86.4c0,14.31-6.75,21.6-13.23,21.6-6.75,0-13.23-7.29-13.23-21.6v-86.4c0-36.99-22.68-55.62-45.63-55.62-22.68,0-45.36,18.63-45.36,55.62v121.77Z"/>
</svg>
